<?xml version="1.0" encoding="utf-8"?>
<!-- Generator: Adobe Illustrator 19.0.0, SVG Export Plug-In . SVG Version: 6.00 Build 0)  -->
<svg version="1.1" id="Layer_1" xmlns="http://www.w3.org/2000/svg" xmlns:xlink="http://www.w3.org/1999/xlink" x="0px" y="0px"
	 viewBox="0 0 200 200" style="enable-background:new 0 0 200 200;" xml:space="preserve">
<g id="XMLID_2_">
	<path id="XMLID_3_" d="M63,53V40.3L52.4,21.5l6.1-1.8L66.1,34L74,20.4h6.6L69.3,40.5V53H63z"/>
	<path id="XMLID_5_" d="M105.6,47.8c-1,1.9-2.5,3.3-4.3,4.3c-1.9,1-4.1,1.5-6.6,1.5c-2.5,0-4.7-0.5-6.6-1.5c-1.9-1-3.3-2.4-4.3-4.2
		c-1-1.8-1.5-4-1.5-6.5c0-2.5,0.5-4.6,1.5-6.5c1-1.9,2.5-3.3,4.3-4.3c1.9-1,4.1-1.5,6.6-1.5c2.5,0,4.7,0.5,6.6,1.5
		c1.9,1,3.3,2.4,4.3,4.2c1,1.8,1.5,4,1.5,6.5C107.1,43.8,106.6,45.9,105.6,47.8z M99,46.3c1.1-1.3,1.7-3,1.7-5s-0.6-3.7-1.7-4.9
		c-1.1-1.3-2.6-1.9-4.3-1.9c-1.7,0-3.2,0.7-4.3,2c-1.1,1.3-1.7,3-1.7,5c0,2,0.6,3.7,1.7,4.9c1.1,1.3,2.6,1.9,4.3,1.9
		C96.4,48.2,97.9,47.6,99,46.3z"/>
	<path id="XMLID_8_" d="M126.6,29.7h6.2V53h-4.1l-1.1-2.5c-1.4,1-3,1.8-4.6,2.4c-1.6,0.6-3.1,0.9-4.4,0.9c-2.9,0-5-0.8-6.2-2.5
		c-1.2-1.7-1.8-4-1.8-7V29.7h6.2V44c0,1.4,0.3,2.6,0.9,3.4c0.6,0.8,1.4,1.2,2.5,1.2c1.1,0,2.1-0.2,3.1-0.7c1-0.5,2-1.2,3.2-2V29.7z"
		/>
	<path id="XMLID_10_" d="M144.4,53h-6.2V29.7h3.3l2.1,3.9c1.1-1,2.4-1.9,3.9-2.7c1.5-0.8,2.8-1.2,4-1.2l1.2,5
		c-1.1,0-2.4,0.4-3.9,1.2c-1.6,0.8-3,1.7-4.3,2.9V53z"/>
	<path id="XMLID_12_" d="M43.8,110.6V78H50l15.1,21.8V78h6.2v32.6h-6.2L50,88.8v21.8H43.8z"/>
	<path id="XMLID_14_" d="M80.3,94l-1.7-5.2c0.8-0.5,2.2-1,4-1.5c1.8-0.4,3.3-0.6,4.4-0.6c1.9,0,3.6,0.4,5.1,1.1
		c1.5,0.7,2.8,1.8,3.7,3.1c0.9,1.3,1.4,2.8,1.4,4.4v15.3H93l-1.1-2.5c-2,2-4,3.1-6.1,3.1c-2.8,0-4.9-0.7-6.3-2
		c-1.4-1.4-2.1-3.2-2.1-5.5c0-2.4,0.8-4.2,2.4-5.5c1.6-1.3,3.7-1.9,6.4-1.9h4.6c0-1.2-0.4-2.1-1-2.8c-0.7-0.7-1.6-1-2.7-1
		c-1.1,0-2.2,0.2-3.5,0.5C82.3,93.2,81.2,93.6,80.3,94z M82.7,103.6c0,0.7,0.3,1.3,0.8,1.8c0.6,0.5,1.3,0.8,2.1,0.8
		c1.9,0,3.6-0.8,5.1-2.3v-3.6h-4.7c-1,0-1.8,0.3-2.5,1C83.1,102,82.7,102.7,82.7,103.6z"/>
	<path id="XMLID_17_" d="M136.4,88.7c1.2,1.4,1.8,3.5,1.8,6.4v15.6h-6.2V96.3c0-1.5-0.2-2.6-0.7-3.4c-0.5-0.8-1.2-1.2-2.2-1.2
		c-1,0-1.8,0.2-2.6,0.7s-1.8,1.1-3.1,2V95v15.6h-6.2V96.3c0-1.5-0.2-2.6-0.7-3.4c-0.5-0.8-1.2-1.2-2.2-1.2c-1,0-1.8,0.2-2.6,0.7
		s-1.8,1.1-3.1,2.1v16.1h-6.2V87.3h4.1l1.1,2.5c1.4-1,2.9-1.8,4.5-2.4c1.5-0.6,2.9-0.9,4-0.9c3.2,0,5.3,1.1,6.4,3.2
		c1.4-1,2.9-1.8,4.4-2.3c1.5-0.6,2.8-0.8,4-0.8C133.3,86.6,135.2,87.3,136.4,88.7z"/>
	<path id="XMLID_19_" d="M164.1,100.8h-15.7c0.3,1.6,1,2.9,2.1,3.7c1.1,0.9,2.7,1.3,4.9,1.3c1.3,0,2.4-0.2,3.5-0.5
		c1-0.4,2.1-0.9,3.3-1.5l1.8,4.5c-1.2,0.9-2.5,1.6-3.8,2.1s-3,0.7-4.9,0.7c-4.4,0-7.8-1.1-10.1-3.2c-2.3-2.2-3.4-5.1-3.4-9
		c0-2.5,0.5-4.6,1.4-6.5c0.9-1.9,2.3-3.3,4.1-4.3c1.8-1,3.8-1.5,6.2-1.5c2.3,0,4.3,0.5,5.9,1.6c1.6,1.1,2.8,2.6,3.6,4.4
		c0.8,1.8,1.2,3.9,1.2,6.2V100.8z M148.5,96.6h9.7c-0.3-1.5-0.9-2.7-1.7-3.5s-1.9-1.2-3.1-1.2c-1.3,0-2.4,0.4-3.2,1.2
		C149.3,94,148.7,95.1,148.5,96.6z"/>
	<path id="XMLID_22_" d="M75.4,168.2v-13.8H62.5v13.8h-6.2v-32.6l6.2-0.2v14.1h12.9v-13.8h6.2v32.6H75.4z"/>
	<path id="XMLID_24_" d="M109.2,158.4H93.5c0.3,1.6,1,2.9,2.1,3.7c1.1,0.9,2.7,1.3,4.9,1.3c1.3,0,2.4-0.2,3.5-0.5
		c1-0.4,2.1-0.9,3.3-1.5l1.8,4.5c-1.2,0.9-2.5,1.6-3.8,2.1s-3,0.7-4.9,0.7c-4.4,0-7.8-1.1-10.1-3.2c-2.3-2.2-3.4-5.1-3.4-9
		c0-2.5,0.5-4.6,1.4-6.5c0.9-1.9,2.3-3.3,4.1-4.3c1.8-1,3.8-1.5,6.2-1.5c2.3,0,4.3,0.5,5.9,1.6c1.6,1.1,2.8,2.6,3.6,4.4
		c0.8,1.8,1.2,3.9,1.2,6.2V158.4z M93.5,154.2h9.7c-0.3-1.5-0.9-2.7-1.7-3.5c-0.8-0.8-1.9-1.2-3.1-1.2c-1.3,0-2.4,0.4-3.2,1.2
		C94.4,151.6,93.8,152.7,93.5,154.2z"/>
	<path id="XMLID_27_" d="M119.3,168.2H113v-23.3h3.3l2.1,3.9c1.1-1,2.4-1.9,3.9-2.7c1.5-0.8,2.8-1.2,4-1.2l1.2,5
		c-1.1,0-2.4,0.4-3.9,1.2c-1.6,0.8-3,1.7-4.3,2.9V168.2z"/>
	<path id="XMLID_29_" d="M151.5,158.4h-15.7c0.3,1.6,1,2.9,2.1,3.7s2.7,1.3,4.9,1.3c1.3,0,2.4-0.2,3.5-0.5c1-0.4,2.1-0.9,3.3-1.5
		l1.8,4.5c-1.2,0.9-2.5,1.6-3.8,2.1c-1.4,0.5-3,0.7-4.9,0.7c-4.4,0-7.8-1.1-10.1-3.2s-3.4-5.1-3.4-9c0-2.5,0.5-4.6,1.4-6.5
		c0.9-1.9,2.3-3.3,4.1-4.3c1.8-1,3.8-1.5,6.2-1.5c2.3,0,4.3,0.5,5.9,1.6c1.6,1.1,2.8,2.6,3.6,4.4c0.8,1.8,1.2,3.9,1.2,6.2V158.4z
		 M135.9,154.2h9.7c-0.3-1.5-0.9-2.7-1.7-3.5c-0.8-0.8-1.9-1.2-3.1-1.2s-2.4,0.4-3.2,1.2C136.7,151.6,136.1,152.7,135.9,154.2z"/>
</g>
</svg>
