<svg version="1" xmlns="http://www.w3.org/2000/svg" width="1365.333" height="1365.333" viewBox="0 0 1024.000000 1024.000000"><path d="M0 512v512h1024V0H0v512zm354.5-293.6c31 4.3 57 13.4 77.4 27 28.2 18.8 44.6 43.8 51.2 78 3.7 19.2 3.5 43.1-.6 63-11.9 57.7-54.7 93.1-125.7 104.2-7.8 1.3-20.4 1.8-51.5 2.1l-41.3.5V630H164V215.9l89.3.4c76.3.3 90.9.6 101.2 2.1zm382.3-.1c54.9 7.4 89.8 25.8 107 56.7 4.5 8.1 8.8 21.3 10.7 32.9 2.3 13.8 1.7 36.4-1.4 46.6-7.5 25-23.5 42.6-51.9 56.7l-14.3 7.2 7.3 2.2c40.7 12.1 63.2 33.4 69.9 66 2.9 13.9 2.3 36.5-1.4 50.6-5.3 20.3-15 37.3-29.7 51.9-22.2 22-52.7 35.7-93 41.5-9.9 1.4-25 1.7-107.7 2.1l-96.3.5V215.9l94.3.4c79.7.3 96.1.7 106.5 2zM935 854v31H95v-62h840v31z"/><path d="M264 354.5V421h27.3c37.4 0 49.7-1.6 63.7-8.2 13-6.2 24.1-20.7 28.6-37.3 2.4-9 3-30.3 1-39.5-4.6-21.8-19.9-38.2-41.6-44.3-10.2-2.9-21-3.7-50.1-3.7H264v66.5zM636 339.5v51.7l37.3-.5c30.3-.3 38.6-.7 44.7-2.1 24.6-5.6 36.4-18.9 38.5-43.2.8-9.4-.8-22.4-3.7-30.1-3.2-8.7-9.2-15.2-17.8-19.6-12.8-6.4-16.7-6.9-60.2-7.4l-38.8-.5v51.7zM636 508.1v52.1l42.8-.5c35.9-.3 43.7-.7 49.1-2.1 9.7-2.5 18.5-7.1 24.9-13.1 10.5-9.7 14.6-20.6 14.6-39.5 0-9.2-.4-12.9-2.2-18.5-5.1-16.1-17.2-25.1-39.2-29.1-5.5-1-18.6-1.3-48.7-1.4H636v52.1z"/></svg>